<?xml version="1.0" encoding="UTF-8" standalone="no"?>
<svg
   xmlns:dc="http://purl.org/dc/elements/1.1/"
   xmlns:cc="http://creativecommons.org/ns#"
   xmlns:rdf="http://www.w3.org/1999/02/22-rdf-syntax-ns#"
   xmlns:svg="http://www.w3.org/2000/svg"
   xmlns="http://www.w3.org/2000/svg"
   viewBox="0 0 211.97126 89.111372"
   height="89.111374"
   width="211.97125"
   xml:space="preserve"
   version="1.1"
   id="svg2"><metadata
     id="metadata8"><rdf:RDF><cc:Work
         rdf:about=""><dc:format>image/svg+xml</dc:format><dc:type
           rdf:resource="http://purl.org/dc/dcmitype/StillImage" /><dc:title></dc:title></cc:Work></rdf:RDF></metadata><defs
     id="defs6" /><g
     transform="matrix(1.25,0,0,-1.25,0,131.7325)"
     id="g10"><g
       id="g4251"><path
         id="path14"
         style="fill:#ffffff;fill-opacity:1;fill-rule:nonzero;stroke:none"
         d="m 64.0852,45.9621 0,47.7051 c 0,1.3996 -0.8465,2.0996 -2.5372,2.0996 -1.7582,0 -2.6363,-0.7 -2.6363,-2.0996 l 0,-47.7051 c 0,-1.4004 0.8781,-2.0996 2.6363,-2.0996 1.6907,0 2.5372,0.6992 2.5372,2.0996 m -20.4446,0.7324 0,45.0684 c 0,9.0821 5.9942,13.6231 17.9824,13.6231 11.8219,0 17.7325,-4.509 17.7325,-13.5255 l 0,-45.0683 c 0,-4.0692 -1.6465,-7.202 -4.9414,-9.3992 -3.2965,-2.1973 -7.5922,-3.2961 -12.8911,-3.2961 -11.9222,0 -17.8824,4.1992 -17.8824,12.5976" /><path
         id="path16"
         style="fill:#ffffff;fill-opacity:1;fill-rule:nonzero;stroke:none"
         d="m 88.6563,67.8051 14.3217,-10.25 0,-10.8606 c 0,-1.5957 0.986,-2.3925 2.96,-2.3925 1.907,0 2.859,0.7968 2.859,2.3925 l 0,8.3008 c 0,2.5391 -1.724,5.5176 -5.173,8.9356 -6.665,6.3476 -10.8103,10.6113 -12.4353,12.7929 -1.625,2.1809 -2.4375,4.5735 -2.4375,7.1778 l 0,7.8613 c 0,9.0821 6.0437,13.6231 18.1338,13.6231 10.825,0 16.238,-4.135 16.238,-12.4024 l -0.108,-19.6797 -14.118,11.2512 0,9.2097 c 0,1.3997 -0.794,2.0997 -2.383,2.0997 -1.861,0 -2.789,-1.3516 -2.789,-4.0516 l 0.298,-4.541 c 0,-2.6055 1.761,-5.6328 5.286,-9.0832 6.548,-6.1524 10.712,-10.4492 12.49,-12.8907 1.778,-2.4414 2.667,-5.2089 2.667,-8.3007 l 0,-8.9344 c 0,-9.3117 -6.06,-13.966 -18.182,-13.966 -11.6883,0 -17.5328,4.2316 -17.5328,12.6953 l -0.0949,21.0129" /><path
         id="path18"
         style="fill:#ffffff;fill-opacity:1;fill-rule:nonzero;stroke:none"
         d="m 134.031,67.8051 14.057,-11 0,-10.1106 c 0,-1.5957 0.987,-2.3925 2.961,-2.3925 1.905,0 2.859,0.7968 2.859,2.3925 l 0,8.3008 c 0,2.5391 -1.724,5.5176 -5.173,8.9356 -6.666,6.3476 -10.811,10.6113 -12.436,12.7929 -1.625,2.1809 -2.437,4.5735 -2.437,7.1778 l 0,7.8613 c 0,9.0821 6.043,13.6231 18.132,13.6231 10.826,0 16.24,-4.135 16.24,-12.4024 l 0.073,-18.9285 -14.299,10.5 0,9.2097 c 0,1.3997 -0.795,2.0997 -2.384,2.0997 -1.859,0 -2.79,-1.3516 -2.79,-4.0516 l 0.301,-4.541 c 0,-2.6055 1.761,-5.6328 5.284,-9.0832 6.55,-6.1524 10.712,-10.4492 12.491,-12.8907 1.778,-2.4414 2.667,-5.2089 2.667,-8.3007 l 0,-8.9344 c 0,-9.3117 -6.06,-13.966 -18.181,-13.966 -11.691,0 -17.534,4.2316 -17.534,12.6953 l 0.169,21.0129" /><path
         id="path84"
         style="fill:#ececec;fill-opacity:1;fill-rule:nonzero;stroke:none"
         d="M 50.4281,48.2277 20.7973,69.1273 52.309,86.8781 47.4434,67.7551 50.4281,48.2277" /><path
         id="path86"
         style="fill:#ffffff;fill-opacity:1;fill-rule:nonzero;stroke:none"
         d="m 34.3227,85.673 -14.3848,-8.3339 0.159,16.8164 c 0,1.1386 -0.7219,1.709 -2.1629,1.709 -1.5102,0 -2.2652,-0.5704 -2.2652,-1.709 l 0,-48.584 c 0,-1.1395 0.755,-1.709 2.2652,-1.709 1.441,0 2.1629,0.5695 2.1629,1.709 l -0.0797,16.1027 14.3055,-9.0012 0,-8.7566 c 0,-2.1535 -1.6579,-4.8137 -4.9735,-6.8164 C 26.0316,35.098 22.2848,34.0969 18.107,34.0969 6.03594,34.0969 0,38.2961 0,46.6945 l 0,45.0684 c 0,9.0821 6.03594,13.6231 18.107,13.6231 10.8102,0 16.2157,-4.135 16.2157,-12.4024 l 0,-7.3106" /></g></g></svg>