<?xml version="1.0" encoding="UTF-8" standalone="no"?><!DOCTYPE svg PUBLIC "-//W3C//DTD SVG 1.1//EN" "http://www.w3.org/Graphics/SVG/1.1/DTD/svg11.dtd"><svg width="100%" height="100%" viewBox="0 0 170 102" version="1.1" xmlns="http://www.w3.org/2000/svg" xmlns:xlink="http://www.w3.org/1999/xlink" xml:space="preserve" xmlns:serif="http://www.serif.com/" style="fill-rule:evenodd;clip-rule:evenodd;stroke-linejoin:round;stroke-miterlimit:1.41421;"><g><path d="M31.661,80.337c0,0.245 0.051,0.448 0.15,0.609c0.1,0.16 0.234,0.292 0.402,0.396c0.168,0.105 0.364,0.19 0.586,0.256c0.222,0.067 0.454,0.129 0.695,0.188c0.324,0.079 0.643,0.167 0.956,0.262c0.314,0.096 0.593,0.229 0.838,0.398c0.245,0.168 0.444,0.388 0.596,0.659c0.151,0.27 0.227,0.618 0.227,1.043c0,0.433 -0.082,0.807 -0.246,1.121c-0.165,0.315 -0.392,0.574 -0.682,0.776c-0.29,0.202 -0.633,0.352 -1.028,0.45c-0.396,0.098 -0.829,0.146 -1.3,0.146c-0.217,0 -0.439,-0.013 -0.665,-0.041c-0.228,-0.026 -0.444,-0.062 -0.65,-0.109c-0.207,-0.045 -0.393,-0.098 -0.56,-0.155c-0.167,-0.06 -0.298,-0.117 -0.393,-0.176l0,-0.932c0.15,0.076 0.318,0.145 0.506,0.208c0.187,0.062 0.381,0.115 0.581,0.159c0.2,0.044 0.402,0.078 0.606,0.103c0.204,0.025 0.396,0.038 0.575,0.038c0.292,0 0.57,-0.026 0.834,-0.076c0.265,-0.05 0.497,-0.133 0.697,-0.25c0.2,-0.117 0.358,-0.276 0.475,-0.478c0.117,-0.202 0.175,-0.455 0.175,-0.759c0,-0.25 -0.051,-0.455 -0.153,-0.618c-0.102,-0.163 -0.239,-0.298 -0.409,-0.404c-0.171,-0.106 -0.368,-0.193 -0.591,-0.259c-0.223,-0.067 -0.457,-0.129 -0.703,-0.187c-0.325,-0.076 -0.643,-0.159 -0.953,-0.254c-0.31,-0.093 -0.587,-0.224 -0.831,-0.391c-0.244,-0.166 -0.439,-0.381 -0.588,-0.642c-0.147,-0.263 -0.221,-0.598 -0.221,-1.007c0,-0.424 0.077,-0.791 0.233,-1.096c0.155,-0.307 0.366,-0.56 0.631,-0.76c0.265,-0.2 0.571,-0.348 0.917,-0.444c0.345,-0.095 0.714,-0.143 1.106,-0.143c0.446,0 0.861,0.043 1.246,0.128c0.386,0.085 0.739,0.196 1.059,0.334l0,0.944c-0.345,-0.146 -0.702,-0.265 -1.071,-0.356c-0.369,-0.092 -0.763,-0.14 -1.184,-0.144c-0.317,0 -0.592,0.034 -0.825,0.104c-0.233,0.068 -0.427,0.166 -0.581,0.292c-0.155,0.128 -0.269,0.282 -0.344,0.463c-0.075,0.181 -0.113,0.382 -0.113,0.604Z" style="fill:#fcfcfc;fill-rule:nonzero;"/><path d="M41.141,85.736c0.304,0 0.574,-0.035 0.81,-0.108c0.235,-0.07 0.44,-0.17 0.615,-0.3c0.175,-0.127 0.321,-0.283 0.438,-0.464c0.116,-0.182 0.206,-0.383 0.268,-0.604c0.042,-0.137 0.071,-0.291 0.088,-0.459c0.016,-0.169 0.025,-0.332 0.025,-0.491l0,-5.186l1.019,0l0,5.162c0,0.196 -0.011,0.4 -0.032,0.612c-0.021,0.212 -0.054,0.41 -0.1,0.594c-0.079,0.309 -0.198,0.594 -0.356,0.856c-0.159,0.262 -0.365,0.49 -0.619,0.68c-0.254,0.193 -0.559,0.343 -0.915,0.45c-0.356,0.109 -0.774,0.163 -1.253,0.163c-0.459,0 -0.86,-0.05 -1.206,-0.15c-0.346,-0.1 -0.643,-0.239 -0.891,-0.414c-0.247,-0.178 -0.451,-0.388 -0.609,-0.632c-0.158,-0.244 -0.281,-0.509 -0.368,-0.797c-0.063,-0.208 -0.108,-0.431 -0.135,-0.669c-0.027,-0.237 -0.04,-0.469 -0.04,-0.693l0,-5.162l1.018,0l0,5.186c0,0.188 0.013,0.381 0.041,0.579c0.026,0.197 0.069,0.379 0.127,0.54c0.146,0.405 0.389,0.724 0.729,0.957c0.339,0.233 0.788,0.35 1.346,0.35Z" style="fill:#fcfcfc;fill-rule:nonzero;"/><path d="M52.958,82.31c0,-0.562 -0.073,-1.057 -0.221,-1.486c-0.147,-0.43 -0.35,-0.787 -0.61,-1.075c-0.258,-0.288 -0.564,-0.505 -0.916,-0.653c-0.351,-0.148 -0.729,-0.222 -1.134,-0.222c-0.404,0 -0.782,0.074 -1.133,0.222c-0.352,0.148 -0.658,0.365 -0.916,0.653c-0.26,0.288 -0.463,0.645 -0.61,1.075c-0.148,0.429 -0.221,0.924 -0.221,1.486c0,0.563 0.074,1.058 0.224,1.485c0.149,0.427 0.354,0.784 0.613,1.072c0.259,0.287 0.564,0.504 0.916,0.65c0.351,0.146 0.731,0.219 1.14,0.219c0.404,0 0.78,-0.073 1.128,-0.219c0.348,-0.146 0.651,-0.363 0.909,-0.65c0.26,-0.288 0.463,-0.645 0.61,-1.072c0.148,-0.427 0.221,-0.922 0.221,-1.485Zm1.013,0c0,0.634 -0.091,1.215 -0.273,1.745c-0.182,0.529 -0.442,0.985 -0.781,1.368c-0.339,0.383 -0.747,0.682 -1.225,0.896c-0.477,0.215 -1.011,0.322 -1.602,0.322c-0.612,0 -1.159,-0.107 -1.643,-0.322c-0.483,-0.214 -0.892,-0.513 -1.227,-0.896c-0.335,-0.383 -0.591,-0.839 -0.769,-1.368c-0.178,-0.53 -0.267,-1.111 -0.267,-1.745c0,-0.637 0.092,-1.221 0.276,-1.752c0.184,-0.531 0.445,-0.988 0.781,-1.371c0.337,-0.383 0.745,-0.683 1.224,-0.897c0.48,-0.215 1.017,-0.322 1.612,-0.322c0.608,0 1.152,0.107 1.634,0.322c0.481,0.214 0.89,0.514 1.224,0.897c0.335,0.383 0.591,0.84 0.769,1.371c0.178,0.531 0.267,1.115 0.267,1.752Z" style="fill:#fcfcfc;fill-rule:nonzero;"/><path d="M60.276,86.486l-0.469,0l-2.106,-4.994c-0.291,-0.687 -0.583,-1.435 -0.875,-2.243l-0.05,0c0.059,1.162 0.088,2.226 0.088,3.193l0,4.044l-1.019,0l0,-8.362l1.469,0l1.968,4.731c0.225,0.541 0.473,1.193 0.744,1.955l0.031,0c0.3,-0.845 0.548,-1.497 0.744,-1.955l1.968,-4.731l1.469,0l0,8.362l-1.019,0l0,-4.044c0,-0.945 0.029,-2.01 0.088,-3.193l-0.05,0c-0.308,0.854 -0.6,1.602 -0.875,2.243l-2.106,4.994Z" style="fill:#fcfcfc;fill-rule:nonzero;"/><path d="M67.381,85.567l4.287,0l0,0.919l-5.306,0l0,-8.362l5.075,0l0,0.918l-4.056,0l0,2.7l3.606,0l0,0.918l-3.606,0l0,2.907Z" style="fill:#fcfcfc;fill-rule:nonzero;"/><path d="M77.711,82.786c0.512,0.737 1.019,1.495 1.518,2.274l0.038,0c-0.054,-0.812 -0.081,-1.641 -0.081,-2.487l0,-4.449l1.025,0l0,8.362l-1.02,0l-3.28,-4.663c-0.566,-0.812 -1.073,-1.57 -1.519,-2.274l-0.037,0c0.054,0.762 0.082,1.652 0.082,2.669l0,4.268l-1.019,0l0,-8.362l1.012,0l3.281,4.662Z" style="fill:#fcfcfc;fill-rule:nonzero;"/><path d="M87.322,79.424c-0.373,1.04 -0.73,1.987 -1.07,2.836l-0.312,0.788l2.771,0l-0.316,-0.787c-0.344,-0.865 -0.693,-1.811 -1.048,-2.837l-0.025,0Zm-3.838,7.062l3.406,-8.362l0.882,0l3.406,8.362l-1.107,0l-0.999,-2.518l-3.495,0l-0.998,2.518l-1.095,0Z" style="fill:#fcfcfc;fill-rule:nonzero;"/><path d="M94.598,85.186c0.302,-0.913 0.627,-1.833 0.976,-2.763l1.606,-4.299l1.018,0l-3.171,8.362l-0.889,0l-3.171,-8.362l1.019,0l1.605,4.299c0.353,0.93 0.68,1.85 0.982,2.763l0.025,0Z" style="fill:#fcfcfc;fill-rule:nonzero;"/><path d="M105.894,82.31c0,-0.562 -0.074,-1.057 -0.221,-1.486c-0.147,-0.43 -0.351,-0.787 -0.609,-1.075c-0.259,-0.288 -0.565,-0.505 -0.917,-0.653c-0.351,-0.148 -0.729,-0.222 -1.134,-0.222c-0.403,0 -0.782,0.074 -1.134,0.222c-0.352,0.148 -0.656,0.365 -0.915,0.653c-0.26,0.288 -0.462,0.645 -0.61,1.075c-0.148,0.429 -0.221,0.924 -0.221,1.486c0,0.563 0.074,1.058 0.224,1.485c0.149,0.427 0.354,0.784 0.613,1.072c0.258,0.287 0.564,0.504 0.916,0.65c0.352,0.146 0.732,0.219 1.14,0.219c0.405,0 0.781,-0.073 1.128,-0.219c0.347,-0.146 0.651,-0.363 0.91,-0.65c0.258,-0.288 0.462,-0.645 0.609,-1.072c0.147,-0.427 0.221,-0.922 0.221,-1.485Zm1.012,0c0,0.634 -0.09,1.215 -0.272,1.745c-0.182,0.529 -0.442,0.985 -0.781,1.368c-0.339,0.383 -0.747,0.682 -1.224,0.896c-0.478,0.215 -1.012,0.322 -1.603,0.322c-0.612,0 -1.16,-0.107 -1.643,-0.322c-0.483,-0.214 -0.892,-0.513 -1.228,-0.896c-0.334,-0.383 -0.591,-0.839 -0.768,-1.368c-0.178,-0.53 -0.267,-1.111 -0.267,-1.745c0,-0.637 0.092,-1.221 0.276,-1.752c0.184,-0.531 0.444,-0.988 0.782,-1.371c0.337,-0.383 0.744,-0.683 1.224,-0.897c0.479,-0.215 1.016,-0.322 1.611,-0.322c0.608,0 1.153,0.107 1.634,0.322c0.482,0.214 0.89,0.514 1.224,0.897c0.335,0.383 0.592,0.84 0.77,1.371c0.177,0.531 0.265,1.115 0.265,1.752Z" style="fill:#fcfcfc;fill-rule:nonzero;"/><rect x="108.782" y="78.124" width="1.018" height="8.362" style="fill:#fcfcfc;fill-rule:nonzero;"/><path d="M116.355,86.486l-0.469,0l-2.106,-4.994c-0.291,-0.687 -0.583,-1.435 -0.875,-2.243l-0.05,0c0.059,1.162 0.088,2.226 0.088,3.193l0,4.044l-1.018,0l0,-8.362l1.468,0l1.969,4.731c0.225,0.541 0.473,1.193 0.743,1.955l0.031,0c0.3,-0.845 0.548,-1.497 0.744,-1.955l1.968,-4.731l1.469,0l0,8.362l-1.019,0l0,-4.044c0,-0.945 0.03,-2.01 0.088,-3.193l-0.05,0c-0.308,0.854 -0.6,1.602 -0.875,2.243l-2.106,4.994Z" style="fill:#fcfcfc;fill-rule:nonzero;"/><rect x="122.442" y="78.124" width="1.018" height="8.362" style="fill:#fcfcfc;fill-rule:nonzero;"/><path d="M126.603,85.567l4.287,0l0,0.919l-5.305,0l0,-8.362l5.073,0l0,0.918l-4.055,0l0,2.7l3.604,0l0,0.918l-3.604,0l0,2.907Z" style="fill:#fcfcfc;fill-rule:nonzero;"/><path d="M136.933,82.786c0.512,0.737 1.019,1.495 1.519,2.274l0.038,0c-0.055,-0.812 -0.082,-1.641 -0.082,-2.487l0,-4.449l1.025,0l0,8.362l-1.019,0l-3.28,-4.663c-0.567,-0.812 -1.073,-1.57 -1.52,-2.274l-0.037,0c0.054,0.762 0.082,1.652 0.082,2.669l0,4.268l-1.019,0l0,-8.362l1.012,0l3.281,4.662Z" style="fill:#fcfcfc;fill-rule:nonzero;"/><path d="M3.811,101.842l-1.018,0l0,-7.441l-2.793,0l0,-0.919l6.605,0l0,0.919l-2.794,0l0,7.441Z" style="fill:#fcfcfc;fill-rule:nonzero;"/><rect x="7.917" y="93.482" width="1.019" height="8.36" style="fill:#fcfcfc;fill-rule:nonzero;"/><path d="M12.079,100.924l4.287,0l0,0.918l-5.306,0l0,-8.36l5.075,0l0,0.919l-4.056,0l0,2.7l3.606,0l0,0.918l-3.606,0l0,2.905Z" style="fill:#fcfcfc;fill-rule:nonzero;"/><path d="M21.115,101.842l-1.018,0l0,-7.441l-2.794,0l0,-0.919l6.606,0l0,0.919l-2.794,0l0,7.441Z" style="fill:#fcfcfc;fill-rule:nonzero;"/><path d="M31.375,97.669c0,-0.563 -0.074,-1.059 -0.221,-1.488c-0.148,-0.428 -0.351,-0.787 -0.61,-1.074c-0.259,-0.287 -0.564,-0.506 -0.916,-0.654c-0.351,-0.147 -0.73,-0.221 -1.134,-0.221c-0.404,0 -0.782,0.074 -1.134,0.221c-0.352,0.148 -0.657,0.367 -0.916,0.654c-0.259,0.287 -0.462,0.646 -0.609,1.074c-0.148,0.429 -0.222,0.925 -0.222,1.488c0,0.562 0.075,1.057 0.225,1.483c0.149,0.428 0.353,0.785 0.612,1.072c0.259,0.287 0.565,0.504 0.916,0.65c0.352,0.146 0.732,0.218 1.141,0.218c0.404,0 0.78,-0.072 1.128,-0.218c0.347,-0.146 0.65,-0.363 0.909,-0.65c0.259,-0.287 0.462,-0.644 0.61,-1.072c0.147,-0.426 0.221,-0.921 0.221,-1.483Zm1.012,0c0,0.633 -0.091,1.215 -0.272,1.743c-0.182,0.529 -0.443,0.985 -0.782,1.368c-0.339,0.384 -0.747,0.683 -1.224,0.897c-0.477,0.215 -1.011,0.323 -1.603,0.323c-0.611,0 -1.159,-0.108 -1.642,-0.323c-0.484,-0.214 -0.893,-0.513 -1.228,-0.897c-0.335,-0.383 -0.591,-0.839 -0.768,-1.368c-0.178,-0.528 -0.267,-1.11 -0.267,-1.743c0,-0.638 0.092,-1.222 0.276,-1.753c0.184,-0.532 0.444,-0.989 0.781,-1.372c0.337,-0.384 0.745,-0.682 1.224,-0.896c0.48,-0.215 1.017,-0.323 1.612,-0.323c0.608,0 1.152,0.108 1.633,0.323c0.482,0.214 0.89,0.512 1.225,0.896c0.335,0.383 0.591,0.84 0.769,1.372c0.177,0.531 0.266,1.115 0.266,1.753Z" style="fill:#fcfcfc;fill-rule:nonzero;"/><path d="M35.61,93.482l1.019,0l0,6.442c0,0.346 -0.052,0.648 -0.156,0.906c-0.104,0.259 -0.253,0.474 -0.447,0.647c-0.193,0.173 -0.426,0.303 -0.697,0.391c-0.27,0.087 -0.574,0.132 -0.912,0.132c-0.287,-0.006 -0.53,-0.029 -0.728,-0.073c-0.198,-0.044 -0.347,-0.089 -0.447,-0.135l0,-0.9c0.154,0.063 0.322,0.112 0.503,0.148c0.181,0.036 0.376,0.052 0.585,0.052c0.187,0 0.36,-0.02 0.519,-0.062c0.157,-0.041 0.293,-0.112 0.406,-0.212c0.112,-0.1 0.199,-0.233 0.262,-0.4c0.062,-0.166 0.093,-0.372 0.093,-0.618l0,-6.318Z" style="fill:#fcfcfc;fill-rule:nonzero;"/><path d="M42.422,92.794l0,-1.055l1.006,0l0,1.055l-1.006,0Zm-0.706,1.988c-0.373,1.04 -0.729,1.985 -1.069,2.837l-0.312,0.787l2.771,0l-0.317,-0.787c-0.343,-0.865 -0.692,-1.812 -1.048,-2.837l-0.025,0Zm-1.688,-1.988l0,-1.055l1.007,0l0,1.055l-1.007,0Zm-2.149,9.048l3.406,-8.36l0.881,0l3.405,8.36l-1.105,0l-0.999,-2.517l-3.496,0l-0.999,2.517l-1.093,0Z" style="fill:#fcfcfc;fill-rule:nonzero;"/><path d="M47.872,94.401l0,3.061l1.005,0c0.313,0 0.579,-0.009 0.8,-0.031c0.221,-0.021 0.419,-0.058 0.594,-0.112c0.354,-0.109 0.627,-0.281 0.819,-0.518c0.191,-0.239 0.287,-0.548 0.287,-0.932c-0.004,-0.359 -0.096,-0.647 -0.275,-0.866c-0.179,-0.219 -0.427,-0.376 -0.744,-0.471c-0.15,-0.046 -0.329,-0.079 -0.537,-0.1c-0.208,-0.022 -0.473,-0.031 -0.794,-0.031l-1.155,0Zm0,3.98l0,3.461l-1.019,0l0,-8.36l2.166,0c0.366,0 0.677,0.014 0.933,0.041c0.256,0.026 0.49,0.069 0.702,0.128c0.583,0.158 1.028,0.428 1.336,0.809c0.308,0.381 0.462,0.858 0.462,1.428c0,0.337 -0.054,0.639 -0.163,0.905c-0.108,0.267 -0.26,0.498 -0.456,0.695c-0.196,0.196 -0.43,0.355 -0.703,0.481c-0.273,0.124 -0.576,0.217 -0.909,0.274l0,0.026l2.475,3.573l-1.019,0l-2.575,-3.461l-1.23,0Z" style="fill:#fcfcfc;fill-rule:nonzero;"/><path d="M56.107,93.482l1.019,0l0,6.442c0,0.346 -0.052,0.648 -0.156,0.906c-0.104,0.259 -0.253,0.474 -0.447,0.647c-0.193,0.173 -0.426,0.303 -0.697,0.391c-0.27,0.087 -0.575,0.132 -0.912,0.132c-0.287,-0.006 -0.53,-0.029 -0.728,-0.073c-0.198,-0.044 -0.347,-0.089 -0.447,-0.135l0,-0.9c0.154,0.063 0.322,0.112 0.503,0.148c0.181,0.036 0.376,0.052 0.585,0.052c0.187,0 0.36,-0.02 0.519,-0.062c0.157,-0.041 0.293,-0.112 0.405,-0.212c0.113,-0.1 0.2,-0.233 0.263,-0.4c0.062,-0.166 0.093,-0.372 0.093,-0.618l0,-6.318Z" style="fill:#fcfcfc;fill-rule:nonzero;"/><path d="M60.238,100.924l4.287,0l0,0.918l-5.306,0l0,-8.36l5.075,0l0,0.919l-4.056,0l0,2.7l3.606,0l0,0.918l-3.606,0l0,2.905Z" style="fill:#fcfcfc;fill-rule:nonzero;"/><path d="M67.087,95.694c0,0.246 0.05,0.45 0.15,0.609c0.099,0.161 0.234,0.293 0.402,0.398c0.168,0.104 0.363,0.189 0.586,0.255c0.222,0.067 0.453,0.13 0.694,0.187c0.324,0.08 0.643,0.167 0.957,0.263c0.314,0.097 0.593,0.228 0.838,0.397c0.245,0.169 0.444,0.388 0.595,0.659c0.152,0.272 0.228,0.619 0.228,1.044c0,0.433 -0.082,0.807 -0.247,1.122c-0.164,0.314 -0.391,0.572 -0.681,0.774c-0.29,0.202 -0.633,0.352 -1.029,0.449c-0.395,0.099 -0.829,0.149 -1.299,0.149c-0.217,0 -0.439,-0.015 -0.666,-0.041c-0.227,-0.028 -0.443,-0.065 -0.649,-0.109c-0.207,-0.047 -0.394,-0.099 -0.56,-0.158c-0.167,-0.057 -0.298,-0.116 -0.394,-0.174l0,-0.931c0.15,0.074 0.319,0.143 0.507,0.205c0.187,0.063 0.381,0.117 0.581,0.16c0.2,0.044 0.402,0.078 0.606,0.103c0.204,0.025 0.395,0.037 0.575,0.037c0.291,0 0.569,-0.024 0.834,-0.074c0.265,-0.05 0.497,-0.133 0.697,-0.25c0.2,-0.116 0.358,-0.276 0.475,-0.478c0.116,-0.202 0.175,-0.454 0.175,-0.759c0,-0.25 -0.051,-0.456 -0.153,-0.619c-0.102,-0.161 -0.239,-0.297 -0.41,-0.402c-0.171,-0.108 -0.367,-0.193 -0.59,-0.259c-0.223,-0.067 -0.458,-0.13 -0.703,-0.189c-0.325,-0.074 -0.643,-0.159 -0.953,-0.252c-0.311,-0.095 -0.587,-0.224 -0.831,-0.391c-0.244,-0.166 -0.44,-0.381 -0.588,-0.644c-0.148,-0.263 -0.222,-0.598 -0.222,-1.005c0,-0.426 0.078,-0.791 0.234,-1.098c0.155,-0.306 0.365,-0.56 0.631,-0.76c0.265,-0.2 0.57,-0.347 0.917,-0.442c0.345,-0.096 0.714,-0.145 1.105,-0.145c0.446,0 0.862,0.043 1.247,0.128c0.386,0.086 0.738,0.198 1.059,0.335l0,0.944c-0.346,-0.146 -0.703,-0.264 -1.071,-0.357c-0.369,-0.09 -0.764,-0.139 -1.184,-0.143c-0.317,0 -0.592,0.034 -0.825,0.103c-0.234,0.068 -0.428,0.166 -0.581,0.294c-0.155,0.127 -0.269,0.281 -0.344,0.462c-0.075,0.181 -0.113,0.382 -0.113,0.603Z" style="fill:#fcfcfc;fill-rule:nonzero;"/><path d="M76.336,101.842l-1.019,0l0,-7.441l-2.793,0l0,-0.919l6.605,0l0,0.919l-2.793,0l0,7.441Z" style="fill:#fcfcfc;fill-rule:nonzero;"/><path d="M81.461,100.924l4.286,0l0,0.918l-5.305,0l0,-8.36l5.074,0l0,0.919l-4.055,0l0,2.7l3.605,0l0,0.918l-3.605,0l0,2.905Z" style="fill:#fcfcfc;fill-rule:nonzero;"/><path d="M88.515,93.482l0,7.442l4.081,0l0,0.918l-5.099,0l0,-8.36l1.018,0Z" style="fill:#fcfcfc;fill-rule:nonzero;"/><path d="M98.589,101.842l-0.469,0l-2.106,-4.991c-0.292,-0.689 -0.583,-1.436 -0.875,-2.244l-0.05,0c0.058,1.163 0.088,2.227 0.088,3.194l0,4.041l-1.018,0l0,-8.36l1.468,0l1.968,4.73c0.225,0.542 0.473,1.194 0.744,1.956l0.031,0c0.3,-0.845 0.548,-1.497 0.743,-1.956l1.969,-4.73l1.469,0l0,8.36l-1.019,0l0,-4.041c0,-0.946 0.03,-2.011 0.088,-3.194l-0.05,0c-0.308,0.853 -0.6,1.601 -0.875,2.244l-2.106,4.991Z" style="fill:#fcfcfc;fill-rule:nonzero;"/><rect x="104.676" y="93.482" width="1.018" height="8.36" style="fill:#fcfcfc;fill-rule:nonzero;"/><path d="M108.838,100.924l4.286,0l0,0.918l-5.305,0l0,-8.36l5.073,0l0,0.919l-4.054,0l0,2.7l3.605,0l0,0.918l-3.605,0l0,2.905Z" style="fill:#fcfcfc;fill-rule:nonzero;"/><path d="M119.167,98.143c0.512,0.738 1.019,1.496 1.519,2.275l0.038,0c-0.055,-0.812 -0.082,-1.642 -0.082,-2.487l0,-4.449l1.025,0l0,8.36l-1.019,0l-3.28,-4.661c-0.567,-0.812 -1.073,-1.571 -1.519,-2.274l-0.038,0c0.054,0.762 0.082,1.651 0.082,2.668l0,4.267l-1.018,0l0,-8.36l1.011,0l3.281,4.661Z" style="fill:#fcfcfc;fill-rule:nonzero;"/><path d="M126.348,101.842l0,-8.36l1.018,0l0,4.13l0.012,0l3.843,-4.13l1.02,0l-3.9,4.161l4.13,4.199l-1.018,0l-4.075,-4.091l-0.012,0l0,4.091l-1.018,0Z" style="fill:#fcfcfc;fill-rule:nonzero;"/><path d="M135.109,100.924l4.286,0l0,0.918l-5.305,0l0,-8.36l5.074,0l0,0.919l-4.055,0l0,2.7l3.605,0l0,0.918l-3.605,0l0,2.905Z" style="fill:#fcfcfc;fill-rule:nonzero;"/><path d="M141.958,95.694c0,0.246 0.05,0.45 0.149,0.609c0.1,0.161 0.234,0.293 0.402,0.398c0.168,0.104 0.363,0.189 0.585,0.255c0.223,0.067 0.455,0.13 0.696,0.187c0.324,0.08 0.642,0.167 0.956,0.263c0.314,0.097 0.593,0.228 0.838,0.397c0.245,0.169 0.443,0.388 0.595,0.659c0.152,0.272 0.228,0.619 0.228,1.044c0,0.433 -0.083,0.807 -0.246,1.122c-0.164,0.314 -0.392,0.572 -0.682,0.774c-0.289,0.202 -0.632,0.352 -1.028,0.449c-0.396,0.099 -0.829,0.149 -1.3,0.149c-0.217,0 -0.438,-0.015 -0.666,-0.041c-0.227,-0.028 -0.443,-0.065 -0.65,-0.109c-0.205,-0.047 -0.392,-0.099 -0.559,-0.158c-0.167,-0.057 -0.298,-0.116 -0.393,-0.174l0,-0.931c0.15,0.074 0.318,0.143 0.506,0.205c0.187,0.063 0.381,0.117 0.581,0.16c0.2,0.044 0.402,0.078 0.606,0.103c0.205,0.025 0.396,0.037 0.575,0.037c0.292,0 0.57,-0.024 0.834,-0.074c0.265,-0.05 0.497,-0.133 0.697,-0.25c0.2,-0.116 0.358,-0.276 0.475,-0.478c0.117,-0.202 0.175,-0.454 0.175,-0.759c0,-0.25 -0.051,-0.456 -0.153,-0.619c-0.102,-0.161 -0.239,-0.297 -0.41,-0.402c-0.17,-0.108 -0.367,-0.193 -0.59,-0.259c-0.223,-0.067 -0.457,-0.13 -0.703,-0.189c-0.325,-0.074 -0.643,-0.159 -0.953,-0.252c-0.31,-0.095 -0.588,-0.224 -0.831,-0.391c-0.244,-0.166 -0.44,-0.381 -0.587,-0.644c-0.148,-0.263 -0.222,-0.598 -0.222,-1.005c0,-0.426 0.077,-0.791 0.233,-1.098c0.155,-0.306 0.366,-0.56 0.631,-0.76c0.265,-0.2 0.571,-0.347 0.917,-0.442c0.345,-0.096 0.714,-0.145 1.105,-0.145c0.447,0 0.862,0.043 1.247,0.128c0.385,0.086 0.739,0.198 1.059,0.335l0,0.944c-0.345,-0.146 -0.702,-0.264 -1.071,-0.357c-0.369,-0.09 -0.763,-0.139 -1.185,-0.143c-0.316,0 -0.591,0.034 -0.824,0.103c-0.234,0.068 -0.427,0.166 -0.581,0.294c-0.155,0.127 -0.269,0.281 -0.344,0.462c-0.075,0.181 -0.112,0.382 -0.112,0.603Z" style="fill:#fcfcfc;fill-rule:nonzero;"/><path d="M148.208,101.842l0,-8.36l1.018,0l0,4.13l0.012,0l3.843,-4.13l1.019,0l-3.899,4.161l4.13,4.199l-1.019,0l-4.074,-4.091l-0.012,0l0,4.091l-1.018,0Z" style="fill:#fcfcfc;fill-rule:nonzero;"/><path d="M159.18,101.092c0.305,0 0.574,-0.035 0.809,-0.105c0.236,-0.071 0.441,-0.171 0.616,-0.3c0.175,-0.13 0.321,-0.285 0.438,-0.466c0.116,-0.181 0.206,-0.382 0.268,-0.602c0.042,-0.138 0.07,-0.291 0.088,-0.459c0.016,-0.17 0.024,-0.334 0.024,-0.491l0,-5.187l1.019,0l0,5.161c0,0.196 -0.011,0.4 -0.031,0.613c-0.021,0.213 -0.055,0.411 -0.1,0.594c-0.08,0.307 -0.198,0.592 -0.356,0.855c-0.159,0.263 -0.365,0.49 -0.619,0.682c-0.254,0.191 -0.559,0.341 -0.915,0.45c-0.357,0.107 -0.774,0.163 -1.253,0.163c-0.458,0 -0.861,-0.05 -1.206,-0.15c-0.347,-0.1 -0.643,-0.239 -0.891,-0.417c-0.248,-0.177 -0.451,-0.387 -0.609,-0.631c-0.158,-0.243 -0.282,-0.51 -0.369,-0.796c-0.063,-0.208 -0.107,-0.431 -0.134,-0.668c-0.028,-0.237 -0.041,-0.469 -0.041,-0.695l0,-5.161l1.019,0l0,5.187c0,0.187 0.014,0.38 0.041,0.578c0.026,0.198 0.069,0.377 0.127,0.54c0.147,0.404 0.389,0.722 0.729,0.955c0.339,0.234 0.788,0.35 1.346,0.35Z" style="fill:#fcfcfc;fill-rule:nonzero;"/><path d="M165.348,95.694c0,0.246 0.05,0.45 0.149,0.609c0.1,0.161 0.234,0.293 0.402,0.398c0.168,0.104 0.363,0.189 0.585,0.255c0.223,0.067 0.455,0.13 0.696,0.187c0.324,0.08 0.642,0.167 0.956,0.263c0.314,0.097 0.593,0.228 0.838,0.397c0.245,0.169 0.443,0.388 0.595,0.659c0.152,0.272 0.228,0.619 0.228,1.044c0,0.433 -0.082,0.807 -0.246,1.122c-0.164,0.314 -0.392,0.572 -0.682,0.774c-0.29,0.202 -0.632,0.352 -1.028,0.449c-0.396,0.099 -0.829,0.149 -1.3,0.149c-0.217,0 -0.438,-0.015 -0.666,-0.041c-0.227,-0.028 -0.443,-0.065 -0.65,-0.109c-0.205,-0.047 -0.392,-0.099 -0.559,-0.158c-0.166,-0.057 -0.298,-0.116 -0.393,-0.174l0,-0.931c0.15,0.074 0.318,0.143 0.506,0.205c0.187,0.063 0.381,0.117 0.581,0.16c0.2,0.044 0.402,0.078 0.606,0.103c0.205,0.025 0.396,0.037 0.575,0.037c0.292,0 0.57,-0.024 0.834,-0.074c0.265,-0.05 0.497,-0.133 0.697,-0.25c0.2,-0.116 0.358,-0.276 0.475,-0.478c0.117,-0.202 0.175,-0.454 0.175,-0.759c0,-0.25 -0.051,-0.456 -0.153,-0.619c-0.102,-0.161 -0.239,-0.297 -0.41,-0.402c-0.17,-0.108 -0.367,-0.193 -0.589,-0.259c-0.224,-0.067 -0.458,-0.13 -0.704,-0.189c-0.325,-0.074 -0.643,-0.159 -0.953,-0.252c-0.31,-0.095 -0.588,-0.224 -0.831,-0.391c-0.244,-0.166 -0.44,-0.381 -0.587,-0.644c-0.148,-0.263 -0.222,-0.598 -0.222,-1.005c0,-0.426 0.078,-0.791 0.233,-1.098c0.156,-0.306 0.366,-0.56 0.631,-0.76c0.265,-0.2 0.571,-0.347 0.917,-0.442c0.345,-0.096 0.714,-0.145 1.105,-0.145c0.447,0 0.862,0.043 1.247,0.128c0.385,0.086 0.739,0.198 1.06,0.335l0,0.944c-0.346,-0.146 -0.703,-0.264 -1.072,-0.357c-0.369,-0.09 -0.763,-0.139 -1.185,-0.143c-0.316,0 -0.591,0.034 -0.824,0.103c-0.234,0.068 -0.427,0.166 -0.581,0.294c-0.155,0.127 -0.268,0.281 -0.344,0.462c-0.074,0.181 -0.112,0.382 -0.112,0.603Z" style="fill:#fcfcfc;fill-rule:nonzero;"/><path d="M65.306,56.435l0,-45.225c0,-1.326 -0.802,-1.991 -2.405,-1.991c-1.667,0 -2.499,0.665 -2.499,1.991l0,45.225c0,1.327 0.832,1.991 2.499,1.991c1.603,0 2.405,-0.664 2.405,-1.991Zm-19.381,-0.694l0,-42.726c0,-8.61 5.682,-12.915 17.047,-12.915c11.207,0 16.811,4.275 16.811,12.823l0,42.725c0,3.857 -1.562,6.827 -4.685,8.91c-3.125,2.084 -7.197,3.125 -12.221,3.125c-11.302,0 -16.952,-3.981 -16.952,-11.942Z" style="fill:#fcfcfc;fill-rule:nonzero;"/><path d="M88.599,35.727l13.577,9.718l0,10.296c0,1.512 0.936,2.267 2.807,2.267c1.808,0 2.711,-0.755 2.711,-2.267l0,-7.869c0,-2.408 -1.635,-5.232 -4.905,-8.472c-6.319,-6.017 -10.249,-10.059 -11.789,-12.128c-1.541,-2.066 -2.311,-4.335 -2.311,-6.803l0,-7.454c0,-8.61 5.731,-12.915 17.192,-12.915c10.262,0 15.394,3.921 15.394,11.759l-0.103,18.655l-13.383,-10.666l0,-8.731c0,-1.326 -0.754,-1.989 -2.26,-1.989c-1.764,0 -2.644,1.28 -2.644,3.841l0.283,4.305c0,2.469 1.669,5.339 5.01,8.611c6.209,5.832 10.155,9.905 11.842,12.219c1.685,2.315 2.528,4.939 2.528,7.87l0,8.47c0,8.827 -5.745,13.239 -17.237,13.239c-11.081,0 -16.622,-4.011 -16.622,-12.035l-0.09,-19.921Z" style="fill:#fcfcfc;fill-rule:nonzero;"/><path d="M131.616,35.727l13.326,10.429l0,9.585c0,1.512 0.935,2.267 2.807,2.267c1.806,0 2.71,-0.755 2.71,-2.267l0,-7.869c0,-2.408 -1.635,-5.232 -4.904,-8.472c-6.319,-6.017 -10.248,-10.059 -11.789,-12.128c-1.54,-2.066 -2.311,-4.335 -2.311,-6.803l0,-7.454c0,-8.61 5.729,-12.915 17.19,-12.915c10.263,0 15.395,3.921 15.395,11.759l0.069,17.943l-13.555,-9.954l0,-8.731c0,-1.326 -0.753,-1.989 -2.259,-1.989c-1.764,0 -2.645,1.28 -2.645,3.841l0.284,4.305c0,2.469 1.669,5.339 5.01,8.611c6.209,5.832 10.155,9.905 11.841,12.219c1.686,2.315 2.528,4.939 2.528,7.87l0,8.47c0,8.827 -5.745,13.239 -17.236,13.239c-11.083,0 -16.622,-4.011 -16.622,-12.035l0.161,-19.921Z" style="fill:#fcfcfc;fill-rule:nonzero;"/><path d="M52.359,54.287l-28.09,-19.813l29.873,-16.828l-4.613,18.129l2.83,18.512Z" style="fill:#dadbdb;fill-rule:nonzero;"/><path d="M37.091,18.788l-13.637,7.901l0.151,-15.942c0,-1.079 -0.685,-1.62 -2.051,-1.62c-1.431,0 -2.147,0.541 -2.147,1.62l0,46.059c0,1.079 0.716,1.62 2.147,1.62c1.366,0 2.051,-0.541 2.051,-1.62l-0.076,-15.266l13.562,8.533l0,8.302c0,2.04 -1.572,4.563 -4.715,6.461c-3.145,1.898 -6.697,2.847 -10.658,2.847c-11.443,0 -17.165,-3.981 -17.165,-11.942l0,-42.726c0,-8.61 5.722,-12.915 17.165,-12.915c10.248,0 15.373,3.921 15.373,11.759l0,6.929Z" style="fill:#fcfcfc;fill-rule:nonzero;"/></g></svg>